<svg width="1920" height="1080" viewBox="0 0 1920 1080" fill="none" xmlns="http://www.w3.org/2000/svg">
<g clip-path="url(#clip0_59_539)">
<rect width="1920" height="1080" fill="black"/>
<mask id="mask0_59_539" style="mask-type:luminance" maskUnits="userSpaceOnUse" x="0" y="0" width="1920" height="1080">
<path d="M1920 0H0V1080H1920V0Z" fill="white"/>
</mask>
<g mask="url(#mask0_59_539)">
<g opacity="0.79">
<path d="M0 19.5H1920" stroke="#14121C"/>
<path d="M0 59.5H1920" stroke="#14121C"/>
<path d="M0 99.5H1920" stroke="#14121C"/>
<path d="M0 139.5H1920" stroke="#14121C"/>
<path d="M0 179.5H1920" stroke="#14121C"/>
<path d="M0 219.5H1920" stroke="#14121C"/>
<path d="M0 259.5H1920" stroke="#14121C"/>
<path d="M0 299.5H1920" stroke="#14121C"/>
<path d="M0 339.5H1920" stroke="#14121C"/>
<path d="M0 379.5H1920" stroke="#14121C"/>
<path d="M0 419.5H1920" stroke="#14121C"/>
<path d="M0 459.5H1920" stroke="#14121C"/>
<path d="M0 499.5H1920" stroke="#14121C"/>
<path d="M0 539.5H1920" stroke="#14121C"/>
<path d="M0 579.5H1920" stroke="#14121C"/>
<path d="M0 619.5H1920" stroke="#14121C"/>
<path d="M0 659.5H1920" stroke="#14121C"/>
<path d="M0 699.5H1920" stroke="#14121C"/>
<path d="M0 739.5H1920" stroke="#14121C"/>
<path d="M0 779.5H1920" stroke="#14121C"/>
<path d="M0 819.5H1920" stroke="#14121C"/>
<path d="M0 859.5H1920" stroke="#14121C"/>
<path d="M0 899.5H1920" stroke="#14121C"/>
<path d="M0 939.5H1920" stroke="#14121C"/>
<path d="M0 979.5H1920" stroke="#14121C"/>
<path d="M0 1019.5H1920" stroke="#14121C"/>
<path d="M0 1059.5H1920" stroke="#14121C"/>
<path d="M16.5 0V1080" stroke="#14121C"/>
<path d="M56.5 0V1080" stroke="#14121C"/>
<path d="M96.5002 0V1080" stroke="#14121C"/>
<path d="M136.5 0V1080" stroke="#14121C"/>
<path d="M176.5 0V1080" stroke="#14121C"/>
<path d="M216.5 0V1080" stroke="#14121C"/>
<path d="M256.5 0V1080" stroke="#14121C"/>
<path d="M296.5 0V1080" stroke="#14121C"/>
<path d="M336.5 0V1080" stroke="#14121C"/>
<path d="M376.5 0V1080" stroke="#14121C"/>
<path d="M416.5 0V1080" stroke="#14121C"/>
<path d="M456.5 0V1080" stroke="#14121C"/>
<path d="M496.5 0V1080" stroke="#14121C"/>
<path d="M536.501 0V1080" stroke="#14121C"/>
<path d="M576.501 0V1080" stroke="#14121C"/>
<path d="M616.501 0V1080" stroke="#14121C"/>
<path d="M656.501 0V1080" stroke="#14121C"/>
<path d="M696.501 0V1080" stroke="#14121C"/>
<path d="M736.501 0V1080" stroke="#14121C"/>
<path d="M776.501 0V1080" stroke="#14121C"/>
<path d="M816.501 0V1080" stroke="#14121C"/>
<path d="M856.501 0V1080" stroke="#14121C"/>
<path d="M896.501 0V1080" stroke="#14121C"/>
<path d="M936.501 0V1080" stroke="#14121C"/>
<path d="M976.501 0V1080" stroke="#14121C"/>
<path d="M1016.5 0V1080" stroke="#14121C"/>
<path d="M1056.5 0V1080" stroke="#14121C"/>
<path d="M1096.5 0V1080" stroke="#14121C"/>
<path d="M1136.5 0V1080" stroke="#14121C"/>
<path d="M1176.5 0V1080" stroke="#14121C"/>
<path d="M1216.5 0V1080" stroke="#14121C"/>
<path d="M1256.5 0V1080" stroke="#14121C"/>
<path d="M1296.5 0V1080" stroke="#14121C"/>
<path d="M1336.5 0V1080" stroke="#14121C"/>
<path d="M1376.5 0V1080" stroke="#14121C"/>
<path d="M1416.5 0V1080" stroke="#14121C"/>
<path d="M1456.5 0V1080" stroke="#14121C"/>
<path d="M1496.5 0V1080" stroke="#14121C"/>
<path d="M1536.5 0V1080" stroke="#14121C"/>
<path d="M1576.5 0V1080" stroke="#14121C"/>
<path d="M1616.5 0V1080" stroke="#14121C"/>
<path d="M1656.5 0V1080" stroke="#14121C"/>
<path d="M1696.5 0V1080" stroke="#14121C"/>
<path d="M1736.5 0V1080" stroke="#14121C"/>
<path d="M1776.5 0V1080" stroke="#14121C"/>
<path d="M1816.5 0V1080" stroke="#14121C"/>
<path d="M1856.5 0V1080" stroke="#14121C"/>
<path d="M1896.5 0V1080" stroke="#14121C"/>
</g>
</g>
</g>
<defs>
<clipPath id="clip0_59_539">
<rect width="1920" height="1080" fill="white"/>
</clipPath>
</defs>
</svg>
