<svg width="1920" height="1080" viewBox="0 0 1920 1080" fill="none" xmlns="http://www.w3.org/2000/svg">
<g clip-path="url(#clip0_4413_541)">
<g opacity="0.79">
<line y1="19.5" x2="1920" y2="19.5" stroke="#181622"/>
<line y1="59.5" x2="1920" y2="59.5" stroke="#181622"/>
<line y1="99.5" x2="1920" y2="99.5" stroke="#181622"/>
<line y1="139.5" x2="1920" y2="139.5" stroke="#181622"/>
<line y1="179.5" x2="1920" y2="179.5" stroke="#181622"/>
<line y1="219.5" x2="1920" y2="219.5" stroke="#181622"/>
<line y1="259.5" x2="1920" y2="259.5" stroke="#181622"/>
<line y1="299.5" x2="1920" y2="299.5" stroke="#181622"/>
<line y1="339.5" x2="1920" y2="339.5" stroke="#181622"/>
<line y1="379.5" x2="1920" y2="379.5" stroke="#181622"/>
<line y1="419.5" x2="1920" y2="419.5" stroke="#181622"/>
<line y1="459.5" x2="1920" y2="459.5" stroke="#181622"/>
<line y1="499.5" x2="1920" y2="499.5" stroke="#181622"/>
<line y1="539.5" x2="1920" y2="539.5" stroke="#181622"/>
<line y1="579.5" x2="1920" y2="579.5" stroke="#181622"/>
<line y1="619.5" x2="1920" y2="619.5" stroke="#181622"/>
<line y1="659.5" x2="1920" y2="659.5" stroke="#181622"/>
<line y1="699.5" x2="1920" y2="699.5" stroke="#181622"/>
<line y1="739.5" x2="1920" y2="739.5" stroke="#181622"/>
<line y1="779.5" x2="1920" y2="779.5" stroke="#181622"/>
<line y1="819.5" x2="1920" y2="819.5" stroke="#181622"/>
<line y1="859.5" x2="1920" y2="859.5" stroke="#181622"/>
<line y1="899.5" x2="1920" y2="899.5" stroke="#181622"/>
<line y1="939.5" x2="1920" y2="939.5" stroke="#181622"/>
<line y1="979.5" x2="1920" y2="979.5" stroke="#181622"/>
<line y1="1019.5" x2="1920" y2="1019.5" stroke="#181622"/>
<line y1="1059.5" x2="1920" y2="1059.5" stroke="#181622"/>
<line x1="16.5" y1="2.18557e-08" x2="16.5" y2="1080" stroke="#181622"/>
<line x1="56.5" y1="2.18557e-08" x2="56.5" y2="1080" stroke="#181622"/>
<line x1="96.5002" y1="2.18557e-08" x2="96.5002" y2="1080" stroke="#181622"/>
<line x1="136.5" y1="2.18557e-08" x2="136.5" y2="1080" stroke="#181622"/>
<line x1="176.5" y1="2.18557e-08" x2="176.5" y2="1080" stroke="#181622"/>
<line x1="216.5" y1="2.18557e-08" x2="216.5" y2="1080" stroke="#181622"/>
<line x1="256.5" y1="2.18557e-08" x2="256.5" y2="1080" stroke="#181622"/>
<line x1="296.5" y1="2.18557e-08" x2="296.5" y2="1080" stroke="#181622"/>
<line x1="336.5" y1="2.18557e-08" x2="336.5" y2="1080" stroke="#181622"/>
<line x1="376.5" y1="2.18557e-08" x2="376.5" y2="1080" stroke="#181622"/>
<line x1="416.5" y1="2.18557e-08" x2="416.5" y2="1080" stroke="#181622"/>
<line x1="456.5" y1="2.18557e-08" x2="456.5" y2="1080" stroke="#181622"/>
<line x1="496.5" y1="2.18557e-08" x2="496.5" y2="1080" stroke="#181622"/>
<line x1="536.501" y1="2.18557e-08" x2="536.501" y2="1080" stroke="#181622"/>
<line x1="576.501" y1="2.18557e-08" x2="576.501" y2="1080" stroke="#181622"/>
<line x1="616.501" y1="2.18557e-08" x2="616.501" y2="1080" stroke="#181622"/>
<line x1="656.501" y1="2.18557e-08" x2="656.501" y2="1080" stroke="#181622"/>
<line x1="696.501" y1="2.18557e-08" x2="696.501" y2="1080" stroke="#181622"/>
<line x1="736.501" y1="2.18557e-08" x2="736.501" y2="1080" stroke="#181622"/>
<line x1="776.501" y1="2.18557e-08" x2="776.501" y2="1080" stroke="#181622"/>
<line x1="816.501" y1="2.18557e-08" x2="816.501" y2="1080" stroke="#181622"/>
<line x1="856.501" y1="2.18557e-08" x2="856.501" y2="1080" stroke="#181622"/>
<line x1="896.501" y1="2.18557e-08" x2="896.501" y2="1080" stroke="#181622"/>
<line x1="936.501" y1="2.18557e-08" x2="936.501" y2="1080" stroke="#181622"/>
<line x1="976.501" y1="2.18557e-08" x2="976.501" y2="1080" stroke="#181622"/>
<line x1="1016.5" y1="2.18557e-08" x2="1016.5" y2="1080" stroke="#181622"/>
<line x1="1056.5" y1="2.18557e-08" x2="1056.5" y2="1080" stroke="#181622"/>
<line x1="1096.5" y1="2.18557e-08" x2="1096.5" y2="1080" stroke="#181622"/>
<line x1="1136.5" y1="2.18557e-08" x2="1136.5" y2="1080" stroke="#181622"/>
<line x1="1176.5" y1="2.18557e-08" x2="1176.5" y2="1080" stroke="#181622"/>
<line x1="1216.5" y1="2.18557e-08" x2="1216.5" y2="1080" stroke="#181622"/>
<line x1="1256.5" y1="2.18557e-08" x2="1256.5" y2="1080" stroke="#181622"/>
<line x1="1296.5" y1="2.18557e-08" x2="1296.5" y2="1080" stroke="#181622"/>
<line x1="1336.5" y1="2.18557e-08" x2="1336.5" y2="1080" stroke="#181622"/>
<line x1="1376.5" y1="2.18557e-08" x2="1376.5" y2="1080" stroke="#181622"/>
<line x1="1416.5" y1="2.18557e-08" x2="1416.5" y2="1080" stroke="#181622"/>
<line x1="1456.5" y1="2.18557e-08" x2="1456.5" y2="1080" stroke="#181622"/>
<line x1="1496.5" y1="2.18557e-08" x2="1496.5" y2="1080" stroke="#181622"/>
<line x1="1536.5" y1="2.18557e-08" x2="1536.5" y2="1080" stroke="#181622"/>
<line x1="1576.5" y1="2.18557e-08" x2="1576.5" y2="1080" stroke="#181622"/>
<line x1="1616.5" y1="2.18557e-08" x2="1616.5" y2="1080" stroke="#181622"/>
<line x1="1656.5" y1="2.18557e-08" x2="1656.5" y2="1080" stroke="#181622"/>
<line x1="1696.5" y1="2.18557e-08" x2="1696.5" y2="1080" stroke="#181622"/>
<line x1="1736.5" y1="2.18557e-08" x2="1736.5" y2="1080" stroke="#181622"/>
<line x1="1776.5" y1="2.18557e-08" x2="1776.5" y2="1080" stroke="#181622"/>
<line x1="1816.5" y1="2.18557e-08" x2="1816.5" y2="1080" stroke="#181622"/>
<line x1="1856.5" y1="2.18557e-08" x2="1856.5" y2="1080" stroke="#181622"/>
<line x1="1896.5" y1="2.18557e-08" x2="1896.5" y2="1080" stroke="#181622"/>
</g>
</g>
<defs>
<clipPath id="clip0_4413_541">
<rect width="1920" height="1080" fill="white"/>
</clipPath>
</defs>
</svg>
